<svg xmlns="http://www.w3.org/2000/svg" xmlns:svg="http://www.w3.org/2000/svg" id="svg2238" width="84mm" height="92mm" version="1.1" viewBox="0 0 84 92"><metadata id="metadata2235"/><g id="layer1" transform="translate(344.19505,-86.949345)"><g id="g2054" transform="translate(-340.37184,-115.43578)"><circle id="path859" cx="-37.788" cy="248.394" r="12.772" transform="scale(-1,1)" style="opacity:1;vector-effect:none;fill:#f47721;fill-opacity:1;stroke:none;stroke-width:8.54365349;stroke-linecap:butt;stroke-linejoin:miter;stroke-miterlimit:4;stroke-dasharray:none;stroke-dashoffset:0;stroke-opacity:1"/><g id="g905" transform="matrix(-0.79734254,0,0,0.79734254,64.468451,-109.95986)"><path style="opacity:1;vector-effect:none;fill:#d7d1d1;fill-opacity:1;stroke:none;stroke-width:6.76746988;stroke-linecap:butt;stroke-linejoin:miter;stroke-miterlimit:4;stroke-dasharray:none;stroke-dashoffset:0;stroke-opacity:1" id="circle861" d="m -9.378117,462.07069 a 10.116556,10.116556 0 0 0 -6.294268,12.84783 10.116556,10.116556 0 0 0 12.8473442,6.29443 10.116556,10.116556 0 0 0 3.08962568,-1.71915 c 8.54659552,4.20907 18.70691912,5.1504 28.41089012,1.82839 4.664799,-1.59692 8.821022,-4.03944 12.333705,-7.09586 a 3.3753089,3.3753089 0 1 0 -4.430777,-5.09119 c -2.869671,2.4969 -6.255864,4.49083 -10.088458,5.80287 -7.764501,2.65806 -15.833303,1.99134 -22.7002213,-1.22984 a 10.116556,10.116556 0 0 0 -0.3198407,-5.34273 10.116556,10.116556 0 0 0 -12.848,-6.29475 z"/><path id="path884" d="m 24.08631,492.85762 a 10.116556,10.116556 0 0 0 8.32403,11.63594 10.116556,10.116556 0 0 0 11.635853,-8.32352 10.116556,10.116556 0 0 0 -0.04766,-3.53539 c 7.75981,-5.52685 13.408555,-14.02449 15.087755,-24.14294 0.807213,-4.86405 0.628766,-9.68154 -0.395393,-14.22375 a 3.3753089,3.3753089 0 1 0 -6.583787,1.48517 c 0.836661,3.71074 0.985511,7.63755 0.322315,11.63385 -1.343587,8.09614 -5.758374,14.88287 -11.851689,19.39974 a 10.116556,10.116556 0 0 0 -4.854977,-2.25305 10.116556,10.116556 0 0 0 -11.63645,8.32395 z" style="opacity:1;vector-effect:none;fill:#d7d1d1;fill-opacity:1;stroke:none;stroke-width:6.76746988;stroke-linecap:butt;stroke-linejoin:miter;stroke-miterlimit:4;stroke-dasharray:none;stroke-dashoffset:0;stroke-opacity:1"/><path id="path886" d="m 66.743248,478.38062 a 10.116556,10.116556 0 0 0 14.211431,-1.6492 10.116556,10.116556 0 0 0 -1.6488,-14.21111 10.116556,10.116556 0 0 0 -3.116412,-1.6701 c -1.078549,-9.46559 -5.778602,-18.52252 -13.818815,-24.89101 -3.865011,-3.0614 -8.166541,-5.23786 -12.636697,-6.54106 a 3.3753089,3.3753089 0 1 0 -1.888336,6.47968 c 3.651853,1.06466 7.159745,2.83574 10.335241,5.35099 6.433271,5.09566 10.233811,12.2445 11.235573,19.76296 a 10.116556,10.116556 0 0 0 -4.322066,3.15701 10.116556,10.116556 0 0 0 1.648881,14.21184 z" style="opacity:1;vector-effect:none;fill:#d7d1d1;fill-opacity:1;stroke:none;stroke-width:6.76746988;stroke-linecap:butt;stroke-linejoin:miter;stroke-miterlimit:4;stroke-dasharray:none;stroke-dashoffset:0;stroke-opacity:1"/><path style="opacity:1;vector-effect:none;fill:#d7d1d1;fill-opacity:1;stroke:none;stroke-width:6.76746988;stroke-linecap:butt;stroke-linejoin:miter;stroke-miterlimit:4;stroke-dasharray:none;stroke-dashoffset:0;stroke-opacity:1" id="path888" d="m 75.39276,435.97192 a 10.116556,10.116556 0 0 0 6.039334,-12.96963 10.116556,10.116556 0 0 0 -12.969137,-6.03949 10.116556,10.116556 0 0 0 -3.055073,1.77983 c -8.628047,-4.03948 -18.804979,-4.77999 -28.441452,-1.26701 -4.632362,1.68873 -8.73954,4.21285 -12.191176,7.33803 a 3.3753089,3.3753089 0 1 0 4.530442,5.00271 c 2.819813,-2.55309 6.165964,-4.6135 9.971907,-6.00096 7.710494,-2.81088 15.79089,-2.30362 22.720082,0.78134 a 10.116556,10.116556 0 0 0 0.425277,5.33537 10.116556,10.116556 0 0 0 12.969798,6.03981 z"/><path style="opacity:1;vector-effect:none;fill:#d7d1d1;fill-opacity:1;stroke:none;stroke-width:6.76746988;stroke-linecap:butt;stroke-linejoin:miter;stroke-miterlimit:4;stroke-dasharray:none;stroke-dashoffset:0;stroke-opacity:1" id="path890" d="m 43.327194,406.27565 a 10.116556,10.116556 0 0 0 -8.014467,-11.85128 10.116556,10.116556 0 0 0 -11.851181,8.01397 10.116556,10.116556 0 0 0 -0.04553,3.53542 c -7.902777,5.32041 -13.7735225,13.66623 -15.7188097,23.7369 -0.9351249,4.84108 -0.88371,9.66161 0.020379,14.22924 a 3.3753089,3.3753089 0 1 0 6.6206447,-1.31114 c -0.738569,-3.7315 -0.78388,-7.66087 -0.01559,-11.6383 1.556499,-8.05792 6.148614,-14.72594 12.358861,-19.08066 a 10.116556,10.116556 0 0 0 4.793907,2.38023 10.116556,10.116556 0 0 0 11.851789,-8.01438 z"/><path id="path893" d="m 0.67046896,419.22427 a 10.116556,10.116556 0 0 0 -14.26447796,1.09979 10.116556,10.116556 0 0 0 1.099409,14.26412 10.116556,10.116556 0 0 0 3.0496713,1.78908 c 0.7126299,9.50014 5.0598294,18.73162 12.8483989,25.40551 3.7440495,3.20822 7.9584238,5.54898 12.3749828,7.02363 a 3.3753089,3.3753089 0 1 0 2.136878,-6.40202 c -3.608074,-1.20473 -7.045034,-3.1098 -10.1211476,-5.74566 -6.2319292,-5.34003 -9.7538858,-12.63015 -10.4648918,-20.18165 A 10.116556,10.116556 0 0 0 1.769922,433.48912 10.116556,10.116556 0 0 0 0.67046896,419.22427 Z" style="opacity:1;vector-effect:none;fill:#d7d1d1;fill-opacity:1;stroke:none;stroke-width:6.76746988;stroke-linecap:butt;stroke-linejoin:miter;stroke-miterlimit:4;stroke-dasharray:none;stroke-dashoffset:0;stroke-opacity:1"/></g></g></g></svg>